<?xml version="1.0" encoding="UTF-8"?><svg id="Layer_2" xmlns="http://www.w3.org/2000/svg" viewBox="0 0 486.38 70.36"><g id="Layer_1-2"><path d="m40.36,70.36l-7.84-19.3h-8.02v19.3H0V0h35.34c17.1,0,30.94,8.04,30.94,25.53,0,8.84-4.04,15.93-9.86,19.94l11.8,24.89h-27.86Zm-15.86-36.99h8.72c4.76,0,8.11-1.81,8.11-7.04s-3.35-7.04-8.11-7.04h-8.72v14.07Z"/><path d="m75.1,70.36V0h24.68v70.36h-24.68Z"/><path d="m205.29,26.03c0,17.69-12.25,26.03-30.85,26.03h-39.04v18.29h-24.68V0h63.72c18.6,0,30.85,8.34,30.85,26.03Zm-24.86.8c0-5.43-3.44-7.54-8.02-7.54h-37.01v15.08h37.01c4.58,0,8.02-2.11,8.02-7.54Z"/><path d="m326.83,26.03c0,17.69-12.25,26.03-30.85,26.03h-59.04v18.29h-24.68V0h83.72c18.6,0,30.85,8.34,30.85,26.03Zm-24.86.8c0-5.43-3.44-7.54-8.02-7.54h-57.01v15.08h57.01c4.58,0,8.02-2.11,8.02-7.54Z"/><path d="m486.38,49.45v20.91h-152.59V0h24.68v49.45h127.9Z"/></g></svg>