<?xml version="1.0" encoding="UTF-8"?><svg id="Layer_2" xmlns="http://www.w3.org/2000/svg" viewBox="0 0 107.88 107.88"><g id="Layer_1-2"><path d="m0,0v107.88h107.88V0H0Zm101.88,101.88h-33.66c.03-4.79.07-11.38.08-15.62.01-2.65-.38-5.23-1.62-7.62-.52-1-1.2-1.89-2.06-2.76,1.07-.16,2.05-.28,3.02-.44,3.41-.55,6.72-1.42,9.83-2.97,4.97-2.47,8.44-6.3,10.31-11.51,1.92-5.37,2.43-10.91,1.54-16.54-.6-3.81-2.31-7.15-4.85-10.05-.29-.33-.35-.58-.21-1.02,1.36-4.08,1.13-8.15-.1-12.21-.11-.37-.29-.73-.37-1.1-.13-.68-.57-.83-1.17-.83-2.18-.02-4.22.58-6.21,1.37-2.67,1.06-5.14,2.49-7.51,4.08-.36.24-.66.28-1.08.17-5.88-1.57-11.85-2.03-17.92-1.47-2.85.27-5.66.73-8.43,1.47-.47.12-.8.04-1.18-.21-3.11-2.05-6.33-3.87-9.95-4.88-1.3-.36-2.61-.59-3.97-.52-.47.02-.74.2-.92.69-1.55,4.28-2,8.62-.64,13.03.23.75.12,1.2-.37,1.78-3.05,3.65-4.7,7.88-4.92,12.64-.2,4.44.23,8.82,1.68,13.05,2.26,6.61,6.84,10.92,13.34,13.3,2.97,1.09,6.05,1.71,9.18,2.1.24.03.49.07.82.13-1.44,1.38-2.32,3-2.88,4.8-.23.72-.4,1.46-.52,2.21-.03.21-.08.36-.29.45-3.12,1.28-6.3,1.86-9.6.75-2.61-.88-4.48-2.67-5.89-4.98-1.11-1.82-2.44-3.42-4.24-4.58-1.67-1.07-3.47-1.76-5.5-1.47-.55.08-1.2.13-1.42.74-.23.63.28,1.05.68,1.43.36.35.75.69,1.18.95,2.44,1.46,4.04,3.66,5.32,6.12.26.5.5,1.01.7,1.53,1.59,4.1,4.72,6.34,8.87,7.3,3.15.73,6.3.47,9.43-.15.42-.08.52-.04.53.41.01,2.56.04,7.19.07,10.44H6V6h95.88v95.88Z"/></g></svg>