<?xml version="1.0" encoding="UTF-8"?><svg id="Layer_2" xmlns="http://www.w3.org/2000/svg" viewBox="0 0 107.88 107.88"><g id="Layer_1-2"><path d="m101.88,6v95.88H6V6h95.88m6-6H0v107.88h107.88V0h0Z"/><g id="UMReQG"><path d="m58.66,48.27s-.08-.03-.11-.04c0-.22,0-.44,0-.66,0-1.72,0-3.44,0-5.17,0-.62,0-.63-.58-.63-5.07,0-10.13,0-15.2,0-.51,0-.51,0-.51.54.02,3.78.05,7.57.04,11.35,0,11.99.02,23.98-.08,35.97,0,.99-.03.93.91.93,4.82,0,9.65,0,14.47,0,1.08,0,.94-.03.94-.95,0-8.65,0-17.3,0-25.95,0-.54,0-1.08.02-1.62.18-3.3,1.76-5.77,4.55-7.46,1.66-1.01,3.51-1.24,5.44-1,2.32.3,4.09,1.4,5.28,3.42.38.64.66,1.32.88,2.03.52,1.7.71,3.44.71,5.21,0,8.51,0,17.02,0,25.53,0,.78,0,.78.8.78,4.88,0,9.77,0,14.65,0,1.03,0,.85-.09.85-.85,0-8.89,0-17.78,0-26.67,0-1.92-.08-3.84-.37-5.74-.35-2.33-.94-4.58-1.93-6.72-2.1-4.52-5.48-7.63-10.28-9.1-2.49-.76-5.04-1.01-7.65-.81-2.16.16-4.23.63-6.18,1.56-2.58,1.23-4.58,3.11-6.22,5.42-.15.21-.3.41-.45.62Zm-25.24,17.93c0-7.87,0-15.73,0-23.6,0-.98-.06-.83-.81-.83-4.86,0-9.73,0-14.59,0-.99,0-.94-.14-.94.93,0,15.65,0,31.31,0,46.96,0,.88-.11.91.92.91,4.82,0,9.65,0,14.47,0,1,0,.95.04.95-.95,0-7.81,0-15.61,0-23.42Zm1.03-39.39c0-3.81-2.26-6.93-5.85-8.04-1.71-.53-3.45-.59-5.22-.3-3.76.6-6.89,3.36-7.22,7.59-.27,3.44,1.38,6.78,4.79,8.33,2.17.98,4.45,1.08,6.75.61,4.06-.84,6.75-4.11,6.75-8.18Z"/></g></g></svg>